<mxfile host="www.draw.io" modified="2019-12-30T11:45:20.996Z" agent="Mozilla/5.0 (Macintosh; Intel Mac OS X 10_15_2) AppleWebKit/537.36 (KHTML, like Gecko) Chrome/79.0.3945.88 Safari/537.36" etag="SD43Pr9VdOQPg1EviWbj" version="12.4.7" type="github">
  <diagram id="jnQUaKEMtfjyKbJyfA8F" name="Page-1">
    <mxGraphModel dx="2706" dy="1459" grid="1" gridSize="10" guides="1" tooltips="1" connect="1" arrows="1" fold="1" page="1" pageScale="1" pageWidth="3300" pageHeight="2339" math="0" shadow="0">
      <root>
        <mxCell id="0"/>
        <mxCell id="1" parent="0"/>
        <mxCell id="L22eh80JxhvPlCMIQLNT-16" value="&lt;font style=&quot;font-size: 16px&quot;&gt;Continous&lt;/font&gt;" style="ellipse;whiteSpace=wrap;html=1;" vertex="1" parent="1">
          <mxGeometry x="2580" y="1190" width="120" height="80" as="geometry"/>
        </mxCell>
        <mxCell id="eA2Bc0m0vbRMlsxlkseu-1" value="&lt;font style=&quot;font-size: 16px&quot;&gt;Product&lt;/font&gt;" style="ellipse;whiteSpace=wrap;html=1;" parent="1" vertex="1">
          <mxGeometry x="1950" y="870" width="120" height="80" as="geometry"/>
        </mxCell>
        <mxCell id="eA2Bc0m0vbRMlsxlkseu-2" value="&lt;font style=&quot;font-size: 16px&quot;&gt;Team&lt;/font&gt;" style="ellipse;whiteSpace=wrap;html=1;" parent="1" vertex="1">
          <mxGeometry x="1540" y="1090" width="120" height="80" as="geometry"/>
        </mxCell>
        <mxCell id="eA2Bc0m0vbRMlsxlkseu-3" value="&lt;font style=&quot;font-size: 16px&quot;&gt;Discovery&lt;/font&gt;" style="ellipse;whiteSpace=wrap;html=1;" parent="1" vertex="1">
          <mxGeometry x="2540" y="1240" width="120" height="80" as="geometry"/>
        </mxCell>
        <mxCell id="eA2Bc0m0vbRMlsxlkseu-4" value="&lt;font style=&quot;font-size: 16px&quot;&gt;Delivery&lt;/font&gt;" style="ellipse;whiteSpace=wrap;html=1;" parent="1" vertex="1">
          <mxGeometry x="2640" y="1240" width="120" height="80" as="geometry"/>
        </mxCell>
        <mxCell id="eA2Bc0m0vbRMlsxlkseu-5" value="&lt;font style=&quot;font-size: 16px&quot;&gt;Vision&lt;br&gt;&lt;/font&gt;" style="ellipse;whiteSpace=wrap;html=1;" parent="1" vertex="1">
          <mxGeometry x="2070" y="1250" width="120" height="80" as="geometry"/>
        </mxCell>
        <mxCell id="eA2Bc0m0vbRMlsxlkseu-6" value="&lt;font style=&quot;font-size: 16px&quot;&gt;Strategy&lt;br&gt;&lt;/font&gt;" style="ellipse;whiteSpace=wrap;html=1;" parent="1" vertex="1">
          <mxGeometry x="2070" y="1360" width="120" height="80" as="geometry"/>
        </mxCell>
        <mxCell id="L22eh80JxhvPlCMIQLNT-1" value="&lt;font style=&quot;font-size: 16px&quot;&gt;Product organization&lt;/font&gt;" style="ellipse;whiteSpace=wrap;html=1;" vertex="1" parent="1">
          <mxGeometry x="1670" y="990" width="120" height="80" as="geometry"/>
        </mxCell>
        <mxCell id="L22eh80JxhvPlCMIQLNT-2" value="&lt;font style=&quot;font-size: 16px&quot;&gt;Business context&lt;br&gt;&lt;/font&gt;" style="ellipse;whiteSpace=wrap;html=1;" vertex="1" parent="1">
          <mxGeometry x="2180" y="1140" width="120" height="80" as="geometry"/>
        </mxCell>
        <mxCell id="L22eh80JxhvPlCMIQLNT-3" value="&lt;font style=&quot;font-size: 16px&quot;&gt;Objectives&lt;br&gt;&lt;/font&gt;" style="ellipse;whiteSpace=wrap;html=1;" vertex="1" parent="1">
          <mxGeometry x="2250" y="1250" width="120" height="80" as="geometry"/>
        </mxCell>
        <mxCell id="L22eh80JxhvPlCMIQLNT-4" value="" style="endArrow=classic;html=1;exitX=0;exitY=1;exitDx=0;exitDy=0;entryX=1;entryY=0;entryDx=0;entryDy=0;" edge="1" parent="1" source="L22eh80JxhvPlCMIQLNT-2" target="eA2Bc0m0vbRMlsxlkseu-5">
          <mxGeometry width="50" height="50" relative="1" as="geometry">
            <mxPoint x="1770" y="1480" as="sourcePoint"/>
            <mxPoint x="1820" y="1430" as="targetPoint"/>
          </mxGeometry>
        </mxCell>
        <mxCell id="L22eh80JxhvPlCMIQLNT-5" value="" style="endArrow=classic;html=1;exitX=0.5;exitY=1;exitDx=0;exitDy=0;" edge="1" parent="1" source="eA2Bc0m0vbRMlsxlkseu-5" target="eA2Bc0m0vbRMlsxlkseu-6">
          <mxGeometry width="50" height="50" relative="1" as="geometry">
            <mxPoint x="2200" y="1230" as="sourcePoint"/>
            <mxPoint x="2070" y="1320" as="targetPoint"/>
          </mxGeometry>
        </mxCell>
        <mxCell id="L22eh80JxhvPlCMIQLNT-6" value="" style="endArrow=classic;html=1;entryX=0.5;entryY=0;entryDx=0;entryDy=0;exitX=1;exitY=1;exitDx=0;exitDy=0;" edge="1" parent="1" source="L22eh80JxhvPlCMIQLNT-2" target="L22eh80JxhvPlCMIQLNT-3">
          <mxGeometry width="50" height="50" relative="1" as="geometry">
            <mxPoint x="2050" y="1640" as="sourcePoint"/>
            <mxPoint x="2100" y="1590" as="targetPoint"/>
          </mxGeometry>
        </mxCell>
        <mxCell id="L22eh80JxhvPlCMIQLNT-7" value="&lt;span style=&quot;font-size: 16px&quot;&gt;Business problem&lt;/span&gt;" style="ellipse;whiteSpace=wrap;html=1;" vertex="1" parent="1">
          <mxGeometry x="2250" y="1350" width="120" height="80" as="geometry"/>
        </mxCell>
        <mxCell id="L22eh80JxhvPlCMIQLNT-8" value="&lt;font style=&quot;font-size: 16px&quot;&gt;OKR&lt;br&gt;&lt;/font&gt;" style="ellipse;whiteSpace=wrap;html=1;" vertex="1" parent="1">
          <mxGeometry x="2250" y="1660" width="120" height="80" as="geometry"/>
        </mxCell>
        <mxCell id="L22eh80JxhvPlCMIQLNT-9" value="&lt;font style=&quot;font-size: 16px&quot;&gt;Outcome-based roadmap&lt;br&gt;&lt;/font&gt;" style="ellipse;whiteSpace=wrap;html=1;" vertex="1" parent="1">
          <mxGeometry x="2330" y="1700" width="150" height="80" as="geometry"/>
        </mxCell>
        <mxCell id="L22eh80JxhvPlCMIQLNT-10" value="&lt;font style=&quot;font-size: 16px&quot;&gt;Autonomous&lt;/font&gt;" style="ellipse;whiteSpace=wrap;html=1;" vertex="1" parent="1">
          <mxGeometry x="1270" y="1230" width="120" height="80" as="geometry"/>
        </mxCell>
        <mxCell id="L22eh80JxhvPlCMIQLNT-11" value="&lt;span style=&quot;font-size: 16px&quot;&gt;Business result&lt;/span&gt;" style="ellipse;whiteSpace=wrap;html=1;" vertex="1" parent="1">
          <mxGeometry x="2240" y="1450" width="140" height="80" as="geometry"/>
        </mxCell>
        <mxCell id="L22eh80JxhvPlCMIQLNT-12" value="&lt;font style=&quot;font-size: 16px&quot;&gt;Roadmap&lt;/font&gt;" style="ellipse;whiteSpace=wrap;html=1;fillColor=#f8cecc;strokeColor=#b85450;" vertex="1" parent="1">
          <mxGeometry x="2000" y="1550" width="120" height="80" as="geometry"/>
        </mxCell>
        <mxCell id="L22eh80JxhvPlCMIQLNT-13" value="&lt;font style=&quot;font-size: 16px&quot;&gt;Measured&lt;/font&gt;" style="ellipse;whiteSpace=wrap;html=1;" vertex="1" parent="1">
          <mxGeometry x="2250" y="1550" width="120" height="80" as="geometry"/>
        </mxCell>
        <mxCell id="L22eh80JxhvPlCMIQLNT-14" value="&lt;font style=&quot;font-size: 16px&quot;&gt;Empowered&lt;/font&gt;" style="ellipse;whiteSpace=wrap;html=1;" vertex="1" parent="1">
          <mxGeometry x="1270" y="1140" width="120" height="80" as="geometry"/>
        </mxCell>
        <mxCell id="L22eh80JxhvPlCMIQLNT-15" value="&lt;font style=&quot;font-size: 16px&quot;&gt;Commitments&lt;/font&gt;" style="ellipse;whiteSpace=wrap;html=1;fillColor=#f8cecc;strokeColor=#b85450;" vertex="1" parent="1">
          <mxGeometry x="2000" y="1650" width="120" height="80" as="geometry"/>
        </mxCell>
        <mxCell id="L22eh80JxhvPlCMIQLNT-18" value="&lt;font style=&quot;font-size: 16px&quot;&gt;Cross-functional&lt;/font&gt;" style="ellipse;whiteSpace=wrap;html=1;" vertex="1" parent="1">
          <mxGeometry x="1260" y="1320" width="150" height="80" as="geometry"/>
        </mxCell>
        <mxCell id="L22eh80JxhvPlCMIQLNT-19" value="&lt;span style=&quot;font-size: 16px&quot;&gt;Product manger&lt;/span&gt;" style="ellipse;whiteSpace=wrap;html=1;" vertex="1" parent="1">
          <mxGeometry x="1630" y="1310" width="150" height="80" as="geometry"/>
        </mxCell>
        <mxCell id="L22eh80JxhvPlCMIQLNT-20" value="&lt;span style=&quot;font-size: 16px&quot;&gt;Product designer&lt;/span&gt;" style="ellipse;whiteSpace=wrap;html=1;" vertex="1" parent="1">
          <mxGeometry x="1630" y="1420" width="150" height="80" as="geometry"/>
        </mxCell>
        <mxCell id="L22eh80JxhvPlCMIQLNT-21" value="&lt;span style=&quot;font-size: 16px&quot;&gt;Engineer&lt;br&gt;&lt;/span&gt;" style="ellipse;whiteSpace=wrap;html=1;" vertex="1" parent="1">
          <mxGeometry x="1630" y="1520" width="150" height="80" as="geometry"/>
        </mxCell>
        <mxCell id="L22eh80JxhvPlCMIQLNT-22" value="&lt;span style=&quot;font-size: 16px&quot;&gt;Engineer&lt;br&gt;&lt;/span&gt;" style="ellipse;whiteSpace=wrap;html=1;" vertex="1" parent="1">
          <mxGeometry x="1640" y="1530" width="150" height="80" as="geometry"/>
        </mxCell>
        <mxCell id="L22eh80JxhvPlCMIQLNT-24" value="&lt;span style=&quot;font-size: 16px&quot;&gt;Delivery manager&lt;/span&gt;" style="ellipse;whiteSpace=wrap;html=1;" vertex="1" parent="1">
          <mxGeometry x="1800" y="1420" width="150" height="80" as="geometry"/>
        </mxCell>
        <mxCell id="L22eh80JxhvPlCMIQLNT-25" value="&lt;font style=&quot;font-size: 16px&quot;&gt;Characteristics&lt;br&gt;&lt;/font&gt;" style="ellipse;whiteSpace=wrap;html=1;" vertex="1" parent="1">
          <mxGeometry x="1420" y="1220" width="140" height="80" as="geometry"/>
        </mxCell>
        <mxCell id="L22eh80JxhvPlCMIQLNT-26" value="&lt;font style=&quot;font-size: 16px&quot;&gt;Structure&lt;br&gt;&lt;/font&gt;" style="ellipse;whiteSpace=wrap;html=1;" vertex="1" parent="1">
          <mxGeometry x="1610" y="1210" width="140" height="80" as="geometry"/>
        </mxCell>
      </root>
    </mxGraphModel>
  </diagram>
</mxfile>
